<svg version="1.1" id="Layer_1" xmlns="http://www.w3.org/2000/svg" xmlns:xlink="http://www.w3.org/1999/xlink" width="292" class="logo" viewBox="0 0 292 292" xml:space="preserve" height="292"><style type="text/css">.st0{fill:url(#SVGID_1_);}.st1{fill:url(#SVGID_2_);}.st2{fill:#19181F;}.st3{fill:url(#SVGID_3_);}.st4{fill:url(#SVGID_4_);}.st5{fill:url(#SVGID_5_);}.st6{fill:url(#SVGID_6_);}.st7{fill:#FFFFFF;}.st8{fill:url(#SVGID_7_);}.st9{fill:url(#SVGID_8_);}.st10{fill:url(#SVGID_9_);}.st11{fill:url(#SVGID_10_);}.st12{fill:url(#SVGID_11_);}.st13{fill:url(#SVGID_12_);}.st14{fill:url(#SVGID_13_);}.st15{fill:url(#SVGID_14_);}.st16{fill:url(#SVGID_15_);}.st17{fill:url(#SVGID_16_);}.st18{fill:url(#SVGID_17_);}.st19{fill:url(#SVGID_18_);}.st20{fill:url(#SVGID_19_);}.st21{fill:url(#SVGID_20_);}.st22{fill:url(#SVGID_21_);}.st23{fill:url(#SVGID_22_);}.st24{fill:url(#SVGID_23_);}.st25{fill:url(#SVGID_24_);}.st26{fill:url(#SVGID_25_);}.st27{fill:url(#SVGID_26_);}.st28{fill:url(#SVGID_27_);}.st29{fill:url(#SVGID_28_);}.st30{fill:url(#SVGID_29_);}.st31{fill:url(#SVGID_30_);}.st32{fill:url(#SVGID_31_);}.st33{fill:url(#SVGID_32_);}.st34{fill:url(#SVGID_33_);}.st35{fill:url(#SVGID_34_);}.st36{fill:url(#SVGID_35_);}.st37{fill:url(#SVGID_36_);}.st38{fill:url(#SVGID_37_);}.st39{fill:url(#SVGID_38_);}.st40{fill:url(#SVGID_39_);}</style><g><linearGradient id="SVGID_1_" gradientUnits="userSpaceOnUse" x1="113.5218" y1="128.6188" x2="61.9018" y2="250.0065"><stop offset="0" style="stop-color:#BDABFF"></stop><stop offset="1" style="stop-color:#4A36FF"></stop></linearGradient><path class="st0" d="M111.39,275.83v-0.09l-51.83-24.99c-3.79-1.82-7.16-4.26-9.99-7.19c-6.51-6.54-10.33-11.13-10.36-20.7
 l-0.42-88.41c-0.02-4.67,4.73-7.84,9.03-6.04l41.05,17.2c13.33,5.55,22.03,18.57,22.09,33.01l0.19,40.84l0.19,43.93
 c0,0.18,0,0.34,0.03,0.52c-0.03,0.06-0.03,0.09,0,0.15c0.28,7.43,4.47,13.51,10.3,16.69L111.39,275.83z"></path><linearGradient id="SVGID_2_" gradientUnits="userSpaceOnUse" x1="112.5243" y1="210.9161" x2="275.0625" y2="210.9161"><stop offset="0" style="stop-color:#BDABFF"></stop><stop offset="1" style="stop-color:#4A36FF"></stop></linearGradient><path class="st1" d="M270.02,134.2l9.46,72.31v4.29c-0.03,0.62-0.12,1.2-0.25,1.82c-0.06,0.37-0.12,0.77-0.22,1.11
 c-0.03,0.09-0.03,0.15-0.06,0.25c-0.03,0.09-0.03,0.15-0.06,0.25c-0.09,0.4-0.22,0.83-0.37,1.2c0,0.03-0.03,0.06-0.03,0.09
 c-0.28,0.86-0.65,1.7-1.08,2.5c-0.19,0.34-0.37,0.65-0.56,0.96c-0.46,0.77-1.02,1.51-1.64,2.22c-0.37,0.43-0.74,0.83-1.17,1.23
 c-0.56,0.53-1.14,1.02-1.79,1.48c-0.62,0.46-1.3,0.89-2.04,1.3c-0.86,0.49-1.76,0.93-2.68,1.36l-127.9,59.2h-0.03
 c-5.24,2.44-10.77,2.38-15.58,0.49c-0.03,0-0.06,0-0.09-0.03l-2.25-1.08l-0.03-0.03l-10.27-4.94v-0.09L59.56,255.1
 c-3.79-1.82-7.16-4.26-9.99-7.19c-5.95-5.98-9.66-13.94-10.24-22.58c1.2,12.74,11.63,21.9,23.51,16.47l0.03-0.03l48.28-22.3
 l106.18-49.08l41.78-19.29l1.11-0.55c0.09-0.06,0.19-0.12,0.31-0.19c0.03-0.03,0.06-0.03,0.09-0.03c0.34-0.19,0.71-0.43,1.02-0.65
 c0.4-0.25,0.8-0.52,1.17-0.8c0.37-0.31,0.71-0.59,1.05-0.93c0.15-0.12,0.31-0.28,0.46-0.43c0.09-0.06,0.15-0.12,0.25-0.22
 c0.43-0.4,0.8-0.83,1.17-1.3c0.56-0.68,1.08-1.39,1.54-2.16c0.31-0.52,0.62-1.08,0.86-1.63c0.03-0.03,0.06-0.06,0.06-0.09
 c0.25-0.49,0.46-1.02,0.65-1.54c0.03-0.09,0.06-0.19,0.09-0.28c0.06-0.15,0.12-0.34,0.18-0.52c0.12-0.46,0.28-0.92,0.37-1.39
 c0.06-0.22,0.09-0.46,0.12-0.68c0.09-0.34,0.15-0.68,0.19-1.02c0.06-0.25,0.06-0.49,0.09-0.74c0.06-0.34,0.09-0.68,0.09-0.99
 C270.02,134.72,270.02,134.47,270.02,134.2z"></path><linearGradient id="SVGID_3_" gradientUnits="userSpaceOnUse" x1="287.5972" y1="106.2722" x2="-25.6181" y2="106.2722"><stop offset="1.653439e-04" style="stop-color:#00D9A2"></stop><stop offset="0.2307" style="stop-color:#01D9A6"></stop><stop offset="0.4621" style="stop-color:#05D8B2"></stop><stop offset="0.6941" style="stop-color:#0CD8C6"></stop><stop offset="0.9251" style="stop-color:#15D6E2"></stop><stop offset="1" style="stop-color:#18D6ED"></stop></linearGradient><path class="st3" d="M279.48,129.83v78.36c-0.46-6.76-4.44-13.36-11.63-16.35l-50.56-21.19L28.5,91.57
 C12.46,84.85,2,69.15,2,51.72V10.88c0-4.65,4.74-7.8,9.03-6.01L266,111.69c1.3,0.56,2.53,1.14,3.73,1.79
 C276.27,116.96,279.48,123.38,279.48,129.83z"></path></g></svg>